@startuml

interface InterfaceClass
{
    + virtual ~InterfaceClass() = default

    + virtual void InterfaceMethod() = 0
     * @brief : A pure virtual method in InterfaceClass, making it an interface class
    ---
}

class TestClass
{
    + TestClass()
     * @brief : Constructor for TestClass

    + ~TestClass() = default

    {static} + void StaticMethod()
     * @brief : A static method in TestClass
     * @details : This method is used to demonstrate the parsing of static member functions in the PlantUML file.

    + void TestMethod()
     * @brief : A test method in TestClass
     * @details : This method is used to demonstrate the parsing of member functions in the PlantUML file.

    + void InterfaceMethod() override
     * @brief : Implementation of the pure virtual method from InterfaceClass
    ---
    - int test_variable
     * A private member variable in TestClass
}
TestClass --|> InterfaceClass

abstract class AbstractClass
{
    + virtual ~AbstractClass() = default

    + virtual void AbstractMethod() = 0
     * @brief : A pure virtual method in AbstractClass, making it an abstract class
    ---
}

class AnotherClass
{
    + AnotherClass()
     * @brief : Constructor for AnotherClass

    + ~AnotherClass() = default

    + void AnotherMethod()
     * @brief : A test method in AnotherClass

    + void AbstractMethod() override
     * @brief : Implementation of the pure virtual method from AbstractClass
    ---
    - TestClass test_class_instance
     * An instance of TestClass as a member variable in AnotherClass
}
AnotherClass *-- TestClass
AnotherClass --|> AbstractClass

@enduml